<?xml version="1.0" encoding="utf-8"?>
<!-- Generator: Adobe Illustrator 26.0.0, SVG Export Plug-In . SVG Version: 6.00 Build 0)  -->
<svg version="1.1" id="Layer_1" xmlns="http://www.w3.org/2000/svg" xmlns:xlink="http://www.w3.org/1999/xlink" x="0px" y="0px"
	 viewBox="0 0 612 792" style="enable-background:new 0 0 612 792;" xml:space="preserve">
<style type="text/css">
	.st0{fill:url(#SVGID_1_);}
	.st1{fill:#F15953;}
	.st2{fill:#477CBF;}
	.st3{fill:#FFFFFF;}
	.st4{fill:#4A6DB5;}
	.st5{fill:url(#SVGID_00000132799300414708133350000003665741945126385800_);}
	.st6{fill:#806BA9;}
	.st7{fill:#F5EB00;}
	.st8{fill:#ED1B56;}
	.st9{fill:#FFD302;}
	.st10{fill:#FEFEFE;}
</style>
<g>
	<linearGradient id="SVGID_1_" gradientUnits="userSpaceOnUse" x1="305.0514" y1="769.6042" x2="305.0514" y2="20.1413">
		<stop  offset="0.1291" style="stop-color:#F15953"/>
		<stop  offset="0.1583" style="stop-color:#F07652"/>
		<stop  offset="0.2014" style="stop-color:#F0944B"/>
		<stop  offset="0.2462" style="stop-color:#F1AE42"/>
		<stop  offset="0.2924" style="stop-color:#F2C436"/>
		<stop  offset="0.3401" style="stop-color:#F3D427"/>
		<stop  offset="0.3901" style="stop-color:#F4DF17"/>
		<stop  offset="0.444" style="stop-color:#F4E707"/>
		<stop  offset="0.5085" style="stop-color:#F5EB00"/>
		<stop  offset="0.5696" style="stop-color:#F3E80E"/>
		<stop  offset="0.6163" style="stop-color:#ECE229"/>
		<stop  offset="0.6581" style="stop-color:#E1D942"/>
		<stop  offset="0.6972" style="stop-color:#D1CE5B"/>
		<stop  offset="0.7343" style="stop-color:#BDC074"/>
		<stop  offset="0.7699" style="stop-color:#A4AF89"/>
		<stop  offset="0.8044" style="stop-color:#889D9D"/>
		<stop  offset="0.8371" style="stop-color:#688BB0"/>
		<stop  offset="0.8619" style="stop-color:#477CBF"/>
	</linearGradient>
	<rect x="61.44" y="20.14" class="st0" width="487.23" height="749.46"/>
	<g>
		<polygon class="st1" points="155.06,402.33 474.94,402.33 470.44,718.27 148.28,718.27 		"/>
		<path class="st2" d="M157.44,363.82c0.57,0.57,324.76,0,324.76,0L444.13,69.39H149.51L157.44,363.82z"/>
		<path class="st3" d="M222.01,718.28c-38.64,0-77.28-0.01-115.93,0.04c-1.45,0-1.74-0.29-1.74-1.74
			c0.04-215.16,0.04-430.33,0-645.49c0-1.45,0.28-1.74,1.74-1.74c38.92,0.05,77.85,0.04,116.77,0.04c-0.12,0.32-0.38,0.34-0.67,0.38
			c-23.53,3.01-41.28,22.95-41.29,46.55c-0.03,63.04,0.01,126.09,0.01,189.13c0,121.42,0,242.83-0.01,364.25
			c0,3.04,0.14,6.08,0.7,9.08c3.32,17.75,13.41,29.92,30.15,36.66C215.07,716.78,218.65,717.12,222.01,718.28z"/>
		<path class="st3" d="M394.65,718.28c38.64,0,77.28-0.01,115.93,0.04c1.45,0,1.74-0.29,1.74-1.74
			c-0.04-215.16-0.04-430.33,0-645.49c0-1.45-0.28-1.74-1.74-1.74c-38.92,0.05-77.85,0.04-116.78,0.04
			c0.12,0.32,0.38,0.34,0.67,0.38c23.53,3.01,41.28,22.95,41.29,46.55c0.03,63.04-0.01,126.09-0.01,189.13
			c0,121.42,0,242.83,0.01,364.25c0,3.04-0.14,6.08-0.7,9.08c-3.32,17.75-13.41,29.92-30.15,36.66
			C401.58,716.78,398.01,717.12,394.65,718.28z"/>
		<g>
			<path class="st3" d="M302.05,511.13c0.01-0.08,0-0.16-0.02-0.24c3.65,0,7.3,0,10.94,0c-0.03,0.08-0.03,0.16-0.02,0.24
				C309.32,511.13,305.69,511.13,302.05,511.13z"/>
			<path class="st3" d="M429.41,435.08c-0.46,0.83-0.93,1.65-1.39,2.48c-0.89,0.84-1.35,1.95-1.88,3.01
				c-0.08,0.16-0.34,0.29-0.07,0.5c0,0,0.01-0.01,0.01-0.01c-0.84,0.24-1.1,0.86-1.08,1.67c0,0,0.01-0.01,0.01-0.01
				c-0.67,0.14-0.8,0.79-1.1,1.24c-3.96,6.01-8.33,11.71-13.25,16.97c-3.41,3.64-7.09,7.02-10.77,10.39
				c-3.64,3.34-7.52,6.35-11.59,9.12c-5.26,3.58-10.64,6.96-16.38,9.78c-6.02,2.96-12.15,5.53-18.51,7.65
				c-7.32,2.43-14.78,4.13-22.37,5.43c-4.85,0.83-9.73,1.01-14.6,1.26c-5.98,0.3-11.96-0.16-17.94-0.27
				c-0.93-0.02-1.88-0.17-2.8-0.3c-3.26-0.49-6.51-1.01-9.75-1.64c-5.17-0.99-10.3-2.21-15.31-3.82c-4.37-1.4-8.67-3.05-12.89-4.88
				c-5.96-2.58-11.75-5.52-17.26-8.92c-4.71-2.9-9.26-6.08-13.55-9.61c-3.64-2.99-7.14-6.14-10.64-9.29
				c-2.38-2.14-4.41-4.64-6.55-7.02c-3.41-3.8-6.47-7.87-9.46-11.99c-2.4-3.31-4.35-6.92-6.47-10.42c-2.5-4.13-4.49-8.5-6.47-12.86
				c-1.92-4.24-3.48-8.66-4.91-13.09c-1.23-3.8-2.12-7.71-3.05-11.59c-0.73-3.07-1.37-6.16-1.69-9.31c-0.02-0.64,0.3-1.31-0.24-1.89
				l-0.01-0.02c-0.09-0.62,0.31-1.31-0.27-1.87c-0.26-0.11-0.25-0.34-0.27-0.57c-0.26-3.16-0.39-6.35-0.48-9.51
				c-0.17-6.56-0.1-13.11,0.51-19.67c0.25-2.74,0.67-5.43,1.04-8.14c0.8-5.75,2.42-11.32,3.85-16.92c1.19-4.65,3.12-9.07,4.9-13.52
				c1.4-3.51,3.07-6.92,4.82-10.27c2.86-5.45,6.21-10.6,9.78-15.64c3.89-5.49,8.31-10.52,12.81-15.5c2.49-2.75,5.42-5.02,8.23-7.4
				l0.02-0.01c0.45-0.23,1.06-0.28,1.12-0.96l-0.02,0.02c0.21,0.02,0.41,0.03,0.3-0.29l-0.02,0.02c0.4,0.26,0.53-0.05,0.69-0.31
				c1.1-1.24,2.68-1.85,3.88-2.96c0.7,0.1,1.1-0.31,1.43-0.84l-0.01,0.01c0.81-0.12,1.35-0.67,1.9-1.2c0.6-0.42,1.2-0.84,1.8-1.26
				c2.28-0.8,4.23-2.18,6.21-3.52c1.04-0.82,2.43-1.02,3.41-1.94c1.79-0.44,3.44-1.22,4.95-2.27c1.59-1.06,3.5-1.42,5.16-2.34
				c1.39,0,2.51-0.71,3.67-1.34c1.76-0.66,3.51-1.36,5.29-1.98c3.48-1.23,7.09-1.96,10.64-2.93c2.64-0.72,5.3-1.44,8-1.88
				c3.44-0.56,6.93-0.85,10.41-1.2c1.37-0.14,2.8,0.08,4.13-0.48c1.03-0.01,2.07,0.03,3.09-0.04c0.57-0.04,1.27,0.37,1.69-0.38
				c0.17-0.04,0.35-0.13,0.52-0.12c3.61,0.27,7.25-0.55,10.85,0.47c1.09,0.31,2.47-0.36,3.44-0.07c1.76,0.52,3.57,0.15,5.27,0.69
				c0.92,0.29,1.87-0.05,2.74,0.09c4.42,0.72,8.83,1.46,13.2,2.53c2.98,0.73,5.98,1.39,8.94,2.26c10.03,2.95,19.52,7.15,28.56,12.36
				c10.84,6.25,20.62,13.9,29.37,22.86c4.9,5.02,9.44,10.33,13.51,16.04c4.9,6.88,9.16,14.13,12.72,21.8
				c3.07,6.62,5.71,13.4,7.64,20.42c2.95,10.73,4.89,21.64,5.05,32.81c-0.03,3.07-0.05,6.15-0.08,9.22
				c-0.49,1.5-0.13,3.02-0.11,4.53c-0.3,1.18,0.14,2.44-0.35,3.6c-0.69,0.67-0.15,1.5-0.29,2.24l0.02-0.02
				c-0.65,0.8-0.13,1.74-0.29,2.6c-0.14,1.17-0.24,2.34-0.44,3.5c-0.46,2.68-0.95,5.35-1.48,8.01c-0.57,2.83-1.15,5.66-2.19,8.37
				c-0.8,1.78-1.42,3.62-1.63,5.57c-1.01,3.13-2.12,6.21-3.56,9.17c-0.72,1.05-1.27,2.16-1.34,3.46
				C429.93,433.66,429.48,434.31,429.41,435.08z M229.28,283.23c-0.23-0.03-0.32,0.1-0.34,0.3c-0.26,0.26-0.53,0.51-0.79,0.77
				c-1.91,0.63-3.12,2.12-4.33,3.6l0.02-0.02c-0.51,0.04-0.98,0.12-0.84,0.82l0.01-0.01c-0.45-0.28-0.6,0.18-0.81,0.38
				c-1.26,1.22-2.51,2.45-3.72,3.72c-0.89,0.94-2.02,1.66-2.56,2.91c-1.1,1.25-2.21,2.5-3.31,3.75c-1.69,1.37-2.82,3.22-4.1,4.93
				c-0.8,1.07-1.9,1.97-2.15,3.4l0.01-0.01c-0.76,0.13-0.87,0.72-0.95,1.34c-1.42,2.15-2.85,4.31-4.27,6.46
				c-2.26,3.44-4.21,7.05-5.7,10.89c-0.77,1.63-1.2,3.4-2.2,4.93c-0.76,1.43-1.51,2.86-1.62,4.52c-0.99,3.01-1.98,6.02-2.97,9.03
				c-0.38,0.26-0.33,0.65-0.28,1.03l0.01-0.02c-0.63,1.52-1.07,3.09-1.13,4.75c-1.55,7.79-2.67,15.63-2.75,23.59
				c-0.39,2.01-0.38,4.02,0,6.02c0.04,4.72,0.48,9.4,1.11,14.07c0.87,6.42,2.27,12.73,4.22,18.88c3.63,11.46,8.8,22.2,15.62,32.16
				c7.23,10.55,15.84,19.76,25.92,27.56c10.1,7.81,21.17,13.93,33.22,18.2c2.77,0.98,5.5,2.09,8.42,2.65
				c1.5,0.29,2.96,0.78,4.44,1.18c1.43,0.38,2.86,1.02,4.31,1.1c3.63,0.18,7.12,1.2,10.74,1.5c2.73,0.22,5.49,0.34,8.22,0.74
				c0.38,0.06,0.7-0.08,1.03-0.24c2.18,0.5,4.39,0.13,6.58,0.2c2.29,0.23,4.56-0.23,6.84-0.32c2.37-0.09,4.72-0.75,7.1-0.99
				c3.28-0.34,6.5-1.01,9.73-1.58c3.82-0.67,7.51-1.93,11.18-3.2c2.82-0.98,5.73-1.75,8.4-3.16c1.19-0.14,2.26-0.58,3.2-1.32
				c0.93-0.46,1.87-0.92,2.8-1.39c2.36-0.68,4.48-1.83,6.47-3.25c0.74-0.46,1.47-0.92,2.21-1.39c1.94-0.57,3.53-1.71,5.02-3.02
				l-0.02,0.01c2.16-0.92,3.95-2.38,5.71-3.88c1.07-0.89,2.15-1.78,3.22-2.67c0.72,0.19,0.9-0.39,1.18-0.83l-0.02,0.02
				c0.89-0.46,1.83-0.87,2.21-1.92l-0.02,0.02c0.33,0.14,0.42,0.03,0.3-0.29l-0.02,0.02c0.73-0.24,1.5-0.44,1.65-1.38l-0.01,0.02
				c0.33,0.14,0.42,0.03,0.29-0.29l-0.02,0.02c0.31,0.12,0.41,0.02,0.29-0.29l-0.02,0.02c0.31,0.12,0.4,0.01,0.3-0.29l-0.02,0.02
				c1.45-0.62,2.59-1.58,3.28-3.02l-0.01,0.02c0.31,0.12,0.4,0.02,0.29-0.29l-0.02,0.02c0.31,0.11,0.4,0.01,0.29-0.29l-0.02,0.02
				c0.31,0.11,0.4,0.01,0.29-0.29l-0.02,0.02c0.31,0.11,0.4,0.01,0.29-0.29l-0.02,0.02c1.69-0.9,2.77-2.46,4.04-3.8
				c0.11-0.11,0.29-0.36,0.07-0.58l-0.02,0.02c0.31,0.11,0.41,0.02,0.29-0.3l-0.02,0.02c0.31,0.11,0.41,0.02,0.29-0.29l-0.02,0.02
				c0.92-0.33,1.63-0.83,1.65-1.92l-0.02,0.02c0.32,0.12,0.43,0.04,0.29-0.3l-0.02,0.02c0.97-0.12,1.18-0.88,1.38-1.65l-0.02,0.02
				c1-0.1,1.16-0.9,1.37-1.65l-0.01,0.01c0.76,0,0.84-0.51,0.83-1.1l-0.01,0.02c0.41,0.3,0.55-0.12,0.7-0.32
				c2.5-3.28,4.85-6.68,7.04-10.17c0.43-0.68,1.27-1.31,0.98-2.34l0,0.01c0.98-0.31,1.13-1.31,1.57-2.02
				c1.46-2.38,2.43-5.03,3.8-7.43c2.35-4.11,4.49-8.32,6.32-12.66c3.07-7.3,5.51-14.81,7.05-22.61c1.32-6.7,2.15-13.44,2.47-20.24
				c0.15-3.15,0.05-6.32-0.15-9.49c-0.27-4.44-0.73-8.84-1.4-13.24c-0.97-6.37-2.42-12.63-4.5-18.73
				c-2.41-7.07-5.41-13.87-9.03-20.43c-4.55-8.23-10.03-15.77-16.34-22.68c-3.32-3.64-6.86-7.08-10.67-10.26
				c-4.84-4.04-9.88-7.8-15.26-11.08c-7.72-4.71-15.87-8.51-24.45-11.35c-6.78-2.24-13.7-3.83-20.78-4.82
				c-5.22-0.74-10.45-1.16-15.71-1.28c-3.75-0.09-7.48,0.23-11.22,0.5c-3.76,0.27-7.49,0.79-11.19,1.45
				c-6.36,1.13-12.56,2.86-18.67,5.01c-8.38,2.94-16.27,6.84-23.77,11.54c-5.96,3.73-11.49,8.03-16.73,12.72
				c-0.23,0.21-0.79,0.37-0.46,0.92l0.02-0.01c-0.39-0.27-0.49-0.03-0.54,0.31l0.01-0.01c-0.22-0.03-0.32,0.06-0.29,0.28l0.01-0.01
				c-0.22-0.03-0.31,0.07-0.29,0.29L229.28,283.23z"/>
			<path class="st3" d="M177.7,389.55c0.32,3.15,0.96,6.24,1.69,9.31c0.93,3.89,1.82,7.8,3.05,11.59c1.43,4.43,2.99,8.85,4.91,13.09
				c1.97,4.36,3.96,8.74,6.47,12.86c2.12,3.5,4.07,7.11,6.47,10.42c2.99,4.12,6.05,8.19,9.46,11.99c2.14,2.38,4.17,4.88,6.55,7.02
				c3.49,3.15,7,6.3,10.64,9.29c4.29,3.53,8.84,6.71,13.55,9.61c5.51,3.4,11.3,6.34,17.26,8.92c4.23,1.83,8.52,3.47,12.89,4.88
				c5.01,1.61,10.14,2.83,15.31,3.82c3.23,0.62,6.49,1.15,9.75,1.64c0.92,0.14,1.87,0.29,2.8,0.3c5.98,0.1,11.97,0.57,17.94,0.27
				c4.87-0.25,9.75-0.43,14.6-1.26c7.59-1.3,15.05-3,22.37-5.43c6.36-2.12,12.49-4.69,18.51-7.65c5.74-2.83,11.11-6.2,16.38-9.78
				c4.07-2.76,7.94-5.78,11.59-9.12c3.68-3.37,7.36-6.75,10.77-10.39c4.92-5.26,9.29-10.96,13.25-16.97c0.3-0.46,0.43-1.1,1.1-1.24
				c0.29,0.96-0.49,1.56-0.86,2.23c-2.93,5.31-6.46,10.23-10.23,14.96c-1.95,2.45-4.03,4.8-6.19,7.09
				c-1.55,1.64-3.02,3.36-4.64,4.94c-17.96,17.41-39,29.28-63.33,35.21c-5.41,1.32-10.87,2.33-16.41,2.94
				c-3.45,0.39-6.9,0.73-10.37,0.8c-3.65,0-7.3,0-10.94,0c-7.08-0.18-14.06-1.09-21.01-2.42c-13.42-2.57-26.11-7.14-38.14-13.58
				c-7.58-4.06-14.69-8.83-21.39-14.24c-4.98-4.02-9.67-8.35-14.01-13.02c-7.68-8.26-14.28-17.32-19.74-27.22
				c-3.96-7.17-7.26-14.62-9.9-22.36c-2.17-6.39-3.86-12.92-5-19.58c-0.78-4.51-1.3-9.04-1.68-13.6c-0.54-6.48-0.5-12.97-0.16-19.44
				c0.35-6.67,1.37-13.28,2.8-19.83c4.26-19.52,12.35-37.28,24.34-53.26c4.02-5.36,11.55-13.56,18.69-20.13
				c3.47-3.2,7.19-5.87,9.72-7.91c0.59-0.48,1.81-1.2,2.37-1.7c0.75-0.09,2.21-0.32,3.05-0.24c-2.82,2.38-7.61,4.08-10.1,6.83
				c-4.5,4.98-16.62,16.87-20.51,22.36c-3.56,5.03-6.91,10.18-9.78,15.64c-1.76,3.35-3.42,6.76-4.82,10.27
				c-1.78,4.45-3.71,8.87-4.9,13.52c-1.43,5.6-3.06,11.16-3.85,16.92c-0.37,2.71-0.79,5.41-1.04,8.14
				c-0.61,6.55-0.68,13.11-0.51,19.67c0.08,3.16,0.21,6.34,0.48,9.51c0.02,0.23,0.01,0.46,0.27,0.57c0.13,0.62-0.22,1.3,0.27,1.87
				c0,0,0.01,0.02,0.01,0.02C177.57,388.29,177.27,388.96,177.7,389.55z"/>
			<path class="st3" d="M222.4,268.65c-0.84-0.08-2.29,2.14-3.04,2.23c1.41-1.92,4.53-4.52,6.38-5.93
				c16.55-12.65,35.16-20.71,55.55-24.76c9.65-1.91,19.42-2.74,29.25-2.46c30.89,0.87,58.54,10.8,82.57,30.22
				c25.32,20.46,41.35,46.78,48.15,78.63c3,14.04,3.59,28.25,2.03,42.54c-1.66,15.19-5.65,29.72-12.28,43.5
				c-0.42,0.88-0.68,1.89-1.6,2.45c0.07-0.77,0.52-1.41,0.76-2.13c0.59-1.1,1.31-2.15,1.34-3.46c1.44-2.96,2.55-6.04,3.56-9.17
				c0.73-1.8,1.41-3.62,1.63-5.57c1.04-2.71,1.62-5.54,2.19-8.37c0.54-2.66,1.02-5.34,1.48-8.01c0.2-1.16,0.3-2.33,0.44-3.5
				c0.5-0.82,0.22-1.73,0.29-2.6c0,0-0.02,0.02-0.02,0.02c0.55-0.69,0.15-1.5,0.29-2.24c0.5-1.16,0.06-2.42,0.35-3.6
				c0.26-1.4,0.11-2.82,0.19-4.23c0.39-3.18,0.4-6.35,0-9.53c-0.16-11.17-2.11-22.08-5.05-32.81c-1.93-7.02-4.57-13.8-7.64-20.42
				c-3.56-7.67-7.83-14.92-12.72-21.8c-4.06-5.71-8.6-11.03-13.51-16.04c-8.75-8.96-18.52-16.6-29.37-22.86
				c-9.04-5.21-18.53-9.41-28.56-12.36c-2.95-0.87-5.95-1.53-8.94-2.26c-4.37-1.07-8.78-1.81-13.2-2.53
				c-0.87-0.14-1.82,0.21-2.74-0.09c-1.7-0.55-3.51-0.17-5.27-0.69c-0.97-0.28-2.35,0.38-3.44,0.07c-3.6-1.02-7.24-0.2-10.85-0.47
				c-0.17-0.01-0.34,0.08-0.52,0.12c-1.58,0.32-3.23-0.18-4.79,0.42c-1.32,0.56-2.76,0.34-4.13,0.48c-3.48,0.35-6.96,0.64-10.41,1.2
				c-2.7,0.44-5.36,1.16-8,1.88c-3.55,0.97-7.16,1.71-10.64,2.93c-1.77,0.63-3.53,1.32-5.29,1.98c-1.36,0.08-2.5,0.76-3.67,1.34
				c-1.66,0.92-3.57,1.28-5.16,2.34c-1.8,0.44-3.36,1.38-4.95,2.27c-0.98,0.92-2.37,1.12-3.41,1.94c-2.27,0.81-4.25,2.15-6.21,3.52
				c-0.6,0.42-1.2,0.84-1.8,1.26c-0.82,0.1-1.43,0.54-1.9,1.2c0,0,0.01-0.01,0.01-0.01c-0.63,0.02-1.03,0.44-1.43,0.84
				c-1.2,1.11-2.78,1.72-3.88,2.96c-0.39-0.24-0.53,0.06-0.69,0.31c0,0,0.02-0.02,0.02-0.02c-0.17,0.02-0.31,0.08-0.3,0.29
				c0,0,0.02-0.02,0.02-0.02c-0.55,0.12-0.97,0.38-1.12,0.96L222.4,268.65z"/>
			<path class="st3" d="M426.14,440.57c0.53-1.06,0.99-2.17,1.88-3.01c-0.22,1.25-0.93,2.26-1.6,3.29
				C426.33,440.76,426.23,440.66,426.14,440.57z"/>
			<path class="st3" d="M425,442.72c-0.02-0.8,0.24-1.42,1.08-1.67C425.93,441.75,425.92,442.53,425,442.72z"/>
			<path class="st4" d="M426.14,440.57c0.09,0.09,0.19,0.19,0.28,0.28c-0.07,0.15-0.17,0.26-0.36,0.22
				C425.8,440.86,426.06,440.73,426.14,440.57z"/>
			
				<linearGradient id="SVGID_00000097460949589604456240000003042377080583574463_" gradientUnits="userSpaceOnUse" x1="192.0724" y1="372.7225" x2="425.8093" y2="372.7225">
				<stop  offset="0.0658" style="stop-color:#F5EB00"/>
				<stop  offset="0.1001" style="stop-color:#F3D526"/>
				<stop  offset="0.1681" style="stop-color:#F1B140"/>
				<stop  offset="0.2347" style="stop-color:#F0934B"/>
				<stop  offset="0.2985" style="stop-color:#EF7C51"/>
				<stop  offset="0.3587" style="stop-color:#F06A53"/>
				<stop  offset="0.4138" style="stop-color:#F05E53"/>
				<stop  offset="0.4593" style="stop-color:#F15953"/>
				<stop  offset="0.5019" style="stop-color:#E95C58"/>
				<stop  offset="0.5696" style="stop-color:#D86365"/>
				<stop  offset="0.654" style="stop-color:#BD6C79"/>
				<stop  offset="0.7516" style="stop-color:#937496"/>
				<stop  offset="0.8594" style="stop-color:#4E7CBB"/>
				<stop  offset="0.8656" style="stop-color:#477CBF"/>
			</linearGradient>
			<path style="fill:url(#SVGID_00000097460949589604456240000003042377080583574463_);" d="M228.15,284.3
				c0.26-0.26,0.53-0.51,0.79-0.77c0.23,0.03,0.38-0.03,0.34-0.3c0,0-0.02,0.02-0.02,0.02c0.23,0.04,0.39,0.01,0.29-0.29
				c0,0-0.01,0.01-0.01,0.01c0.27,0.08,0.41,0.03,0.29-0.28c0,0-0.01,0.01-0.01,0.01c0.37,0.24,0.47-0.01,0.54-0.31
				c0,0-0.02,0.01-0.02,0.01c0.69-0.08,1.07-0.64,1.57-1.01c28.27-21.09,59.89-28.78,94.58-22.84
				c26.59,4.56,49.17,17.06,67.37,36.99c23.17,25.37,33.63,55.4,31.74,89.71c-0.74,13.49-3.89,26.44-9.08,38.89
				c-1.49,3.58-3.15,7.07-5.19,10.37c-0.53,0.19-0.68,0.7-0.95,1.1c-11.5,17.14-26.38,30.51-44.7,40.01
				c-16,8.3-33.1,12.48-51.07,13.18c-2.27,0-4.55,0-6.82,0c-1.97-0.25-3.95,0.04-5.94-0.29c-4.39-0.72-8.85-0.97-13.23-1.89
				c-4.32-0.91-8.62-1.9-12.83-3.24c-22.82-7.23-41.81-20.13-56.93-38.68c-16.46-20.19-24.95-43.5-26.59-69.35
				c-0.34-5.43-0.21-10.91,0.44-16.37c0.57-4.74,1.19-9.45,2.18-14.12c3.58-16.87,10.59-32.19,20.81-46.06
				c3.35-4.54,7.13-8.7,10.93-12.85C226.96,285.26,227.91,285.11,228.15,284.3z M330.68,326.3c0.13,0.01,0.27,0.05,0.4,0.03
				c6.52-1.08,12.97-2.42,19.14-4.87c3.85-1.53,7.58-3.29,10.48-6.37c2.83-3.01,2.96-6.44,0.46-9.74c-1.65-2.18-3.88-3.67-6.23-4.97
				c-4.36-2.41-9.05-3.93-13.85-5.15c-8.66-2.2-17.48-3.19-26.39-3.48c-4.67-0.15-9.35-0.28-14.01,0.22
				c-5.23,0.09-10.4,0.76-15.54,1.65c-6.76,1.16-13.4,2.81-19.63,5.79c-3.04,1.46-5.94,3.16-8.05,5.89
				c-2.05,2.66-2.13,5.37-0.28,8.18c0.93,1.42,2.16,2.57,3.52,3.57c4.07,3,8.72,4.79,13.52,6.21c8.42,2.49,17.04,3.73,25.8,4.24
				C310.28,328.09,320.5,327.88,330.68,326.3z M300.94,337.25c-7.33-0.58-14.62-1.45-21.87-2.74c-1.59-0.28-3.14-0.87-4.81-0.63
				c-3.77,0.54-7.51,1.28-11.19,2.26c-6.82,1.82-13.43,4.16-19.23,8.33c-2.16,1.55-4.11,3.32-5.42,5.66
				c-1.08,1.92-1.78,3.94-1.3,6.23c0.77,3.73,3.21,6.23,6.09,8.39c5.46,4.1,11.74,6.45,18.2,8.36c12.33,3.64,25,5.24,37.81,5.85
				c1.16,0.05,2.32,0.41,3.48-0.03c7.72,0.56,15.43,0.16,23.12-0.4c7.27-0.53,14.5-1.54,21.64-3.08c7.1-1.54,14.06-3.49,20.64-6.62
				c3.67-1.74,7.14-3.8,9.9-6.85c3.83-4.23,3.92-9.01,0.29-13.39c-2.12-2.56-4.82-4.4-7.7-5.98c-7.52-4.11-15.67-6.37-23.99-8.12
				c-1.68-0.35-3.34-0.96-5.08-0.76c-1.8,0.21-3.58,0.59-5.36,0.91c-7.01,1.27-14.05,2.3-21.18,2.65
				C310.28,337.53,305.61,337.35,300.94,337.25z M276.15,439.4c3.06,0.37,6.11,0.83,9.18,1.08c10.05,0.81,20.1,1.25,30.2,0.96
				c12.81-0.36,25.53-1.5,38.12-3.94c10.03-1.94,19.87-4.58,29.13-9.04c4.56-2.2,8.87-4.79,12.32-8.6
				c4.92-5.43,5.14-11.39,0.55-17.07c-3.24-4.01-7.55-6.63-12.09-8.88c-9.25-4.6-19.12-7.26-29.19-9.27
				c-1.46-0.29-2.91-0.88-4.41-0.65c-4.16,0.65-8.31,1.42-12.46,2.15c-6.21,1.1-12.47,1.84-18.76,2.27
				c-6.53,0.44-13.07,0.38-19.6-0.01c-5.11-0.31-10.21-0.82-15.29-1.52c-2.83-0.39-5.65-0.79-8.47-1.18
				c-1.06-0.22-2.11-0.51-3.18-0.65c-2.67-0.36-5.27-1.39-8.05-0.68c-1.44,0.37-2.94,0.53-4.4,0.82
				c-8.91,1.78-17.61,4.23-25.73,8.43c-4.55,2.35-8.78,5.14-11.98,9.24c-4.24,5.44-4.1,11.23,0.33,16.49c1.68,2,3.66,3.66,5.81,5.11
				c6.76,4.58,14.3,7.39,22.06,9.66C258.72,436.61,267.37,438.33,276.15,439.4z"/>
			<path class="st3" d="M226.62,285.98c-4.01,3.89-8.22,7.53-10.93,12.85c-10.22,13.87-17.23,29.19-20.81,46.06
				c-0.99,4.67-1.61,9.39-2.18,14.12c-0.65,5.45-0.79,10.94-0.44,16.37c1.63,25.85,10.13,49.16,26.59,69.35
				c15.12,18.55,34.11,31.45,56.93,38.68c4.21,1.33,8.51,2.33,12.83,3.24c4.38,0.92,8.84,1.17,13.23,1.89
				c1.99,0.33,3.97,0.03,5.94,0.29c2.27,0.38,4.55,0.39,6.82,0c17.98-0.7,35.07-4.88,51.07-13.18c18.32-9.5,33.2-22.88,44.7-40.01
				c0.27-0.4,0.43-0.92,0.95-1.1c0.13,0.51-0.28,0.82-0.44,1.22c-0.41,0.99-1.21,1.78-1.44,2.86c0,0,0-0.01,0-0.01
				c-1.15,1.74-2.27,3.5-3.44,5.22c-1.74,2.55-3.52,5.07-5.28,7.61c0,0,0.01-0.02,0.01-0.02c-0.45,0.23-0.76,0.58-0.83,1.1
				c0,0,0.01-0.01,0.01-0.01c-0.64,0.39-1.08,0.97-1.37,1.65c0,0,0.02-0.02,0.02-0.02c-0.64,0.4-1.08,0.97-1.38,1.65
				c0,0,0.02-0.02,0.02-0.02c-0.19,0.01-0.28,0.12-0.29,0.3c0,0,0.02-0.02,0.02-0.02c-0.72,0.49-1.22,1.18-1.65,1.92
				c0,0,0.02-0.02,0.02-0.02c-0.19,0.01-0.28,0.12-0.29,0.29l0.02-0.02c-0.18,0.02-0.27,0.12-0.29,0.3c0,0,0.02-0.02,0.02-0.02
				c-1.51,1.33-2.79,2.87-4.11,4.38l0.02-0.02c-0.18,0.01-0.28,0.11-0.29,0.29l0.02-0.02c-0.18,0.01-0.28,0.1-0.29,0.29
				c0,0,0.02-0.02,0.02-0.02c-0.19,0.01-0.29,0.1-0.29,0.29c0,0,0.02-0.02,0.02-0.02c-0.19,0.01-0.29,0.1-0.29,0.29
				c0,0,0.01-0.02,0.01-0.02c-1.17,0.93-2.34,1.85-3.28,3.02c0,0,0.02-0.02,0.02-0.02c-0.18,0.02-0.28,0.11-0.3,0.29
				c0,0,0.02-0.02,0.02-0.02c-0.18,0.02-0.28,0.11-0.29,0.29l0.02-0.02c-0.18,0.01-0.3,0.09-0.29,0.29c0,0,0.01-0.02,0.01-0.02
				c-0.69,0.3-1.23,0.76-1.65,1.38l0.02-0.02c-0.18,0.01-0.29,0.1-0.3,0.29c0,0,0.02-0.02,0.02-0.02c-0.89,0.46-1.63,1.09-2.21,1.92
				c0,0,0.02-0.02,0.02-0.02c-0.61-0.03-0.82,0.5-1.18,0.83c-1.07,0.89-2.15,1.78-3.22,2.67c-2.12,0.98-3.92,2.41-5.71,3.88
				c0,0,0.02-0.01,0.02-0.01c-1.82,0.76-3.39,1.94-5.02,3.02c-0.74,0.46-1.47,0.92-2.21,1.39c-2.28,0.83-4.35,2.09-6.47,3.25
				c-0.93,0.46-1.87,0.92-2.8,1.39c-1.18,0.16-2.19,0.74-3.2,1.32c-2.67,1.4-5.58,2.17-8.4,3.16c-3.66,1.27-7.35,2.53-11.18,3.2
				c-3.23,0.57-6.45,1.25-9.73,1.58c-2.38,0.24-4.72,0.9-7.1,0.99c-2.28,0.09-4.55,0.55-6.84,0.32c-2.18-0.5-4.39-0.12-6.58-0.2
				c-0.32,0.16-0.65,0.29-1.03,0.24c-2.72-0.4-5.48-0.51-8.22-0.74c-3.62-0.3-7.11-1.32-10.74-1.5c-1.45-0.07-2.87-0.71-4.31-1.1
				c-1.48-0.4-2.94-0.89-4.44-1.18c-2.91-0.56-5.65-1.67-8.42-2.65c-12.05-4.27-23.13-10.39-33.22-18.2
				c-10.08-7.8-18.69-17.01-25.92-27.56c-6.83-9.96-12-20.7-15.62-32.16c-1.94-6.14-3.35-12.46-4.22-18.88
				c-0.63-4.68-1.06-9.36-1.11-14.07c0-2.01,0-4.02,0-6.02c0.08-7.96,1.2-15.8,2.75-23.59c0.58-1.54,1.01-3.1,1.13-4.75
				c0,0-0.01,0.02-0.01,0.02c0.49-0.24,0.27-0.66,0.28-1.03c0.99-3.01,1.98-6.02,2.97-9.03c0.62-1.48,1.47-2.87,1.62-4.52
				c1-1.52,1.43-3.3,2.2-4.93c1.98-3.59,3.99-7.16,5.7-10.89c1.42-2.15,2.85-4.31,4.27-6.46c0.47-0.34,0.81-0.77,0.95-1.34
				c0,0-0.01,0.01-0.01,0.01c1.12-1.44,2.3-2.84,3.35-4.33c0.95-1.35,2.3-2.4,2.91-4c1.1-1.25,2.21-2.5,3.31-3.75
				c2.55-2.15,4.8-4.6,7.08-7.01c0,0-0.01,0.01-0.01,0.01c0.41-0.14,0.81-0.3,0.84-0.82c0,0-0.02,0.02-0.02,0.02
				c0.59,0.07,0.76-0.5,1.13-0.76C225.5,286.75,225.82,286.02,226.62,285.98z"/>
			<path class="st3" d="M409.44,438.61c0.23-1.08,1.02-1.87,1.44-2.86c0.17-0.4,0.58-0.71,0.44-1.22c2.04-3.3,3.7-6.8,5.19-10.37
				c5.19-12.46,8.34-25.4,9.08-38.89c1.89-34.31-8.58-64.34-31.74-89.71c-18.2-19.92-40.78-32.43-67.37-36.99
				c-34.68-5.95-66.3,1.75-94.58,22.84c-0.49,0.37-0.88,0.93-1.57,1.01c-0.33-0.54,0.23-0.71,0.46-0.92
				c5.24-4.68,10.77-8.99,16.73-12.72c7.51-4.7,15.39-8.6,23.77-11.54c6.11-2.15,12.31-3.87,18.67-5.01
				c3.7-0.66,7.43-1.18,11.19-1.45c3.74-0.27,7.47-0.59,11.22-0.5c5.26,0.13,10.49,0.55,15.71,1.28c7.08,1,14,2.58,20.78,4.82
				c8.58,2.84,16.73,6.65,24.45,11.35c5.38,3.28,10.42,7.04,15.26,11.08c3.8,3.17,7.35,6.62,10.67,10.26
				c6.32,6.91,11.8,14.46,16.34,22.68c3.62,6.55,6.63,13.35,9.03,20.43c2.08,6.1,3.53,12.36,4.5,18.73
				c0.67,4.39,1.13,8.79,1.4,13.24c0.19,3.17,0.3,6.34,0.15,9.49c-0.32,6.8-1.15,13.54-2.47,20.24c-1.54,7.8-3.97,15.31-7.05,22.61
				c-1.83,4.35-3.97,8.55-6.32,12.66c-1.37,2.4-2.34,5.06-3.8,7.43C410.57,437.31,410.42,438.3,409.44,438.61z"/>
			<path class="st3" d="M400.72,451.43c1.76-2.53,3.54-5.06,5.28-7.61c1.18-1.72,2.3-3.48,3.44-5.22c0.29,1.03-0.55,1.66-0.98,2.34
				c-2.2,3.49-4.54,6.89-7.04,10.17C401.28,451.31,401.13,451.73,400.72,451.43z"/>
			<path class="st3" d="M212.62,299.45c-0.61,1.59-1.96,2.65-2.91,4c-1.05,1.49-2.23,2.89-3.35,4.33c0.26-1.42,1.35-2.33,2.15-3.4
				C209.8,302.67,210.93,300.82,212.62,299.45z"/>
			<path class="st3" d="M201.15,315.56c-1.71,3.73-3.72,7.3-5.7,10.89C196.95,322.61,198.89,319.01,201.15,315.56z"/>
			<path class="st3" d="M223.01,288.69c-2.29,2.41-4.54,4.86-7.08,7.01c0.53-1.25,1.67-1.97,2.56-2.91c1.21-1.27,2.46-2.5,3.72-3.72
				C222.4,288.87,222.55,288.41,223.01,288.69z"/>
			<path class="st3" d="M371.27,478.68c1.78-1.47,3.59-2.91,5.71-3.88C375.22,476.31,373.43,477.77,371.27,478.68z"/>
			<path class="st3" d="M233.49,260.87c1.96-1.37,3.94-2.7,6.21-3.52C237.73,258.69,235.77,260.07,233.49,260.87z"/>
			<path class="st3" d="M357.6,486.32c2.12-1.16,4.18-2.42,6.47-3.25C362.08,484.5,359.95,485.64,357.6,486.32z"/>
			<path class="st3" d="M390.63,462.88c1.32-1.5,2.6-3.05,4.11-4.38c0.22,0.22,0.04,0.46-0.07,0.58
				C393.4,460.43,392.33,461.99,390.63,462.88z"/>
			<path class="st3" d="M441.93,372.7c0.4,3.18,0.39,6.35,0,9.53c-0.03-0.1-0.06-0.2-0.08-0.31
				C441.88,378.85,441.9,375.78,441.93,372.7z"/>
			<path class="st3" d="M226.62,285.98c-0.79,0.05-1.12,0.77-1.68,1.16c-0.37,0.26-0.54,0.83-1.13,0.76
				c1.21-1.48,2.42-2.96,4.33-3.6C227.91,285.11,226.96,285.26,226.62,285.98z"/>
			<path class="st3" d="M366.27,481.69c1.63-1.08,3.2-2.26,5.02-3.02C369.8,479.98,368.21,481.12,366.27,481.69z"/>
			<path class="st3" d="M243.11,255.42c1.59-0.9,3.15-1.83,4.95-2.27C246.55,254.2,244.91,254.97,243.11,255.42z"/>
			<path class="st3" d="M193.25,331.38c-0.14,1.65-0.99,3.05-1.62,4.52C191.74,334.24,192.49,332.81,193.25,331.38z"/>
			<path class="st3" d="M436.7,414.75c-0.21,1.95-0.9,3.77-1.63,5.57C435.28,418.37,435.9,416.54,436.7,414.75z"/>
			<path class="st3" d="M386.27,466.98c0.95-1.17,2.11-2.09,3.28-3.02C388.86,465.39,387.72,466.36,386.27,466.98z"/>
			<path class="st3" d="M301.76,498.08c2.19,0.08,4.4-0.3,6.58,0.2C306.15,498.22,303.94,498.58,301.76,498.08z"/>
			<path class="st3" d="M253.22,250.8c1.17-0.59,2.31-1.26,3.67-1.34C255.74,250.1,254.61,250.81,253.22,250.8z"/>
			<path class="st3" d="M431.51,429.49c-0.04,1.31-0.75,2.36-1.34,3.46C430.25,431.65,430.79,430.54,431.51,429.49z"/>
			<path class="st3" d="M188.4,345.93c-0.12,1.64-0.56,3.21-1.13,4.75C187.33,349.03,187.77,347.46,188.4,345.93z"/>
			<path class="st3" d="M184.52,374.27c0,2.01,0,4.02,0,6.02C184.13,378.29,184.13,376.28,184.52,374.27z"/>
			<path class="st3" d="M351.59,489.03c1.01-0.58,2.02-1.16,3.2-1.32C353.85,488.45,352.78,488.89,351.59,489.03z"/>
			<path class="st6" d="M441.85,381.93c0.03,0.1,0.06,0.2,0.08,0.31c-0.08,1.41,0.07,2.83-0.19,4.23
				C441.71,384.94,441.36,383.43,441.85,381.93z"/>
			<path class="st3" d="M295.36,240.98c1.55-0.6,3.21-0.1,4.79-0.42c-0.42,0.75-1.12,0.34-1.69,0.38
				C297.42,241.02,296.39,240.98,295.36,240.98z"/>
			<path class="st3" d="M381.35,471.33c0.57-0.83,1.32-1.46,2.21-1.92C383.18,470.46,382.24,470.87,381.35,471.33z"/>
			<path class="st3" d="M395.27,457.98c0.43-0.74,0.93-1.43,1.65-1.92C396.9,457.15,396.18,457.65,395.27,457.98z"/>
			<path class="st3" d="M397.18,455.79c0.3-0.68,0.74-1.25,1.38-1.65C398.36,454.91,398.15,455.67,397.18,455.79z"/>
			<path class="st3" d="M398.54,454.16c0.29-0.69,0.73-1.26,1.37-1.65C399.7,453.26,399.54,454.06,398.54,454.16z"/>
			<path class="st3" d="M383.82,469.16c0.41-0.62,0.96-1.08,1.65-1.38C385.32,468.71,384.55,468.92,383.82,469.16z"/>
			<path class="st3" d="M229.79,263.32c0.47-0.66,1.08-1.1,1.9-1.2C231.14,262.65,230.6,263.2,229.79,263.32z"/>
			<path class="st3" d="M441.11,392.28c-0.07,0.87,0.21,1.78-0.29,2.6C440.98,394.01,440.46,393.08,441.11,392.28z"/>
			<path class="st3" d="M206.37,307.77c-0.15,0.57-0.48,1-0.95,1.34C205.5,308.49,205.61,307.9,206.37,307.77z"/>
			<path class="st3" d="M399.9,452.52c0.07-0.52,0.38-0.86,0.83-1.1C400.74,452,400.66,452.52,399.9,452.52z"/>
			<path class="st3" d="M228.37,264.15c0.41-0.4,0.8-0.82,1.43-0.84C229.47,263.83,229.07,264.25,228.37,264.15z"/>
			<path class="st3" d="M441.39,390.06c-0.15,0.74,0.25,1.55-0.29,2.24C441.23,391.55,440.7,390.72,441.39,390.06z"/>
			<path class="st3" d="M223.84,287.88c-0.03,0.53-0.43,0.68-0.84,0.82C222.85,287.99,223.33,287.91,223.84,287.88z"/>
			<path class="st3" d="M177.7,389.55c-0.43-0.58-0.14-1.26-0.24-1.89C178,388.23,177.69,388.91,177.7,389.55z"/>
			<path class="st3" d="M177.46,387.64c-0.48-0.57-0.14-1.25-0.27-1.87C177.77,386.32,177.37,387.02,177.46,387.64z"/>
			<path class="st3" d="M380.2,472.13c0.36-0.32,0.57-0.86,1.18-0.83C381.09,471.74,380.92,472.33,380.2,472.13z"/>
			<path class="st3" d="M222.42,268.64c0.15-0.58,0.57-0.84,1.12-0.96C223.48,268.36,222.87,268.4,222.42,268.64z"/>
			<path class="st3" d="M188.67,344.93c0,0.37,0.22,0.79-0.28,1.03C188.33,345.58,188.28,345.19,188.67,344.93z"/>
			<path class="st3" d="M223.8,267.43c0.16-0.25,0.3-0.55,0.69-0.31C224.33,267.38,224.19,267.69,223.8,267.43z"/>
			<path class="st3" d="M230.35,282.4c-0.07,0.3-0.17,0.54-0.54,0.31C229.86,282.37,229.96,282.12,230.35,282.4z"/>
			<path class="st3" d="M396.9,456.07c0.01-0.18,0.1-0.29,0.29-0.3C397.33,456.11,397.23,456.2,396.9,456.07z"/>
			<path class="st3" d="M394.99,458.25c0.02-0.18,0.11-0.28,0.29-0.29C395.4,458.27,395.3,458.37,394.99,458.25z"/>
			<path class="st3" d="M394.72,458.53c0.02-0.18,0.11-0.28,0.29-0.3C395.13,458.54,395.03,458.64,394.72,458.53z"/>
			<path class="st3" d="M390.36,463.16c0.01-0.18,0.11-0.28,0.29-0.29C390.76,463.17,390.66,463.27,390.36,463.16z"/>
			<path class="st3" d="M390.09,463.43c0.01-0.19,0.11-0.28,0.29-0.29C390.49,463.44,390.39,463.54,390.09,463.43z"/>
			<path class="st3" d="M389.81,463.7c0.01-0.19,0.11-0.28,0.29-0.29C390.22,463.72,390.12,463.82,389.81,463.7z"/>
			<path class="st3" d="M389.54,463.97c0-0.19,0.11-0.28,0.29-0.29C389.94,463.99,389.85,464.09,389.54,463.97z"/>
			<path class="st3" d="M386,467.25c0.02-0.18,0.12-0.27,0.3-0.29C386.4,467.26,386.31,467.37,386,467.25z"/>
			<path class="st3" d="M385.72,467.52c0.01-0.18,0.12-0.28,0.29-0.29C386.13,467.54,386.04,467.64,385.72,467.52z"/>
			<path class="st3" d="M385.45,467.79c0-0.2,0.11-0.27,0.29-0.29C385.87,467.82,385.78,467.93,385.45,467.79z"/>
			<path class="st3" d="M383.54,469.43c0.01-0.19,0.12-0.28,0.3-0.29C383.97,469.46,383.88,469.57,383.54,469.43z"/>
			<path class="st3" d="M223.52,267.7c-0.01-0.21,0.13-0.27,0.3-0.29C223.93,267.72,223.73,267.71,223.52,267.7z"/>
			<path class="st3" d="M229.82,282.69c0.12,0.32-0.02,0.36-0.29,0.28C229.51,282.75,229.6,282.66,229.82,282.69z"/>
			<path class="st3" d="M229.55,282.96c0.1,0.3-0.06,0.33-0.29,0.29C229.23,283.03,229.33,282.93,229.55,282.96z"/>
			<path class="st3" d="M229.28,283.23c0.04,0.27-0.11,0.33-0.34,0.3C228.95,283.32,229.05,283.2,229.28,283.23z"/>
			<path class="st2" d="M275.37,385.7c2.83,0.39,5.65,0.79,8.47,1.18c5.08,0.71,10.18,1.22,15.29,1.52
				c6.53,0.39,13.07,0.45,19.6,0.01c6.29-0.43,12.55-1.17,18.76-2.27c4.15-0.73,8.29-1.5,12.46-2.15c1.49-0.23,2.95,0.36,4.41,0.65
				c10.07,2.01,19.94,4.67,29.19,9.27c4.54,2.25,8.85,4.87,12.09,8.88c4.59,5.69,4.37,11.64-0.55,17.07
				c-3.45,3.8-7.75,6.4-12.32,8.6c-9.26,4.46-19.09,7.1-29.13,9.04c-12.58,2.44-25.3,3.58-38.12,3.94
				c-10.09,0.28-20.15-0.15-30.2-0.96c-3.07-0.25-6.12-0.72-9.18-1.08c-3.08-1.6-6.34-2.84-9.39-4.52
				c-5.89-3.25-11.55-6.78-15.57-12.37c-3.76-5.24-4.53-10.79-1.71-16.73c1.76-3.7,4.53-6.6,7.57-9.16
				c4.41-3.71,9.42-6.54,14.64-8.98C272.94,387.06,274.4,386.82,275.37,385.7z"/>
			<path class="st1" d="M300.94,337.25c4.67,0.1,9.34,0.28,14.02,0.05c7.13-0.35,14.17-1.39,21.18-2.65
				c1.78-0.32,3.56-0.7,5.36-0.91c1.74-0.2,3.41,0.41,5.08,0.76c8.32,1.75,16.47,4.01,23.99,8.12c2.88,1.58,5.58,3.42,7.7,5.98
				c3.63,4.38,3.54,9.15-0.29,13.39c-2.76,3.05-6.23,5.11-9.9,6.85c-6.58,3.13-13.54,5.08-20.64,6.62
				c-7.14,1.55-14.37,2.56-21.64,3.08c-7.69,0.56-15.4,0.96-23.12,0.4c-0.22-0.05-0.45-0.07-0.65-0.16
				c-4.15-1.71-8.19-3.64-11.92-6.18c-2.63-1.79-5.11-3.72-7.07-6.27c-3.7-4.82-3.92-9.6-1.7-13.96c1.84-3.63,4.75-6.32,8-8.69
				C292.94,341.05,296.95,339.18,300.94,337.25z"/>
			<path class="st7" d="M300.68,291.97c4.66-0.51,9.35-0.38,14.01-0.22c8.9,0.3,17.73,1.29,26.39,3.48
				c4.8,1.22,9.49,2.74,13.85,5.15c2.36,1.3,4.58,2.79,6.23,4.97c2.5,3.29,2.37,6.72-0.46,9.74c-2.89,3.08-6.63,4.84-10.48,6.37
				c-6.17,2.46-12.62,3.79-19.14,4.87c-0.13,0.02-0.27-0.02-0.4-0.03c-0.11-0.08-0.21-0.2-0.33-0.22
				c-7.87-1.29-15.56-3.29-22.91-6.39c-4.77-2.01-9.32-4.45-12.88-8.37c-1.95-2.16-3.28-4.7-3.06-7.6c0.26-3.38,2.14-6.04,4.66-8.3
				C297.58,294.13,299.2,293.15,300.68,291.97z"/>
			<path class="st8" d="M300.94,337.25c-3.98,1.93-7.99,3.81-11.6,6.44c-3.25,2.37-6.16,5.06-8,8.69c-2.22,4.37-1.99,9.14,1.7,13.96
				c1.96,2.55,4.44,4.48,7.07,6.27c3.73,2.54,7.76,4.47,11.92,6.18c0.2,0.08,0.43,0.1,0.65,0.16c-1.15,0.44-2.32,0.08-3.48,0.03
				c-12.81-0.61-25.48-2.21-37.81-5.85c-6.45-1.9-12.74-4.26-18.2-8.36c-2.88-2.16-5.32-4.66-6.09-8.39
				c-0.47-2.3,0.22-4.31,1.3-6.23c1.32-2.34,3.27-4.11,5.42-5.66c5.8-4.17,12.41-6.51,19.23-8.33c3.68-0.98,7.42-1.72,11.19-2.26
				c1.67-0.24,3.23,0.35,4.81,0.63C286.31,335.8,293.61,336.67,300.94,337.25z"/>
			<path class="st4" d="M275.37,385.7c-0.97,1.11-2.43,1.36-3.67,1.94c-5.23,2.44-10.23,5.27-14.64,8.98
				c-3.04,2.56-5.81,5.46-7.57,9.16c-2.82,5.94-2.05,11.49,1.71,16.73c4.02,5.59,9.68,9.12,15.57,12.37
				c3.05,1.68,6.3,2.92,9.39,4.52c-8.78-1.07-17.43-2.79-25.92-5.28c-7.77-2.28-15.3-5.08-22.06-9.66
				c-2.15-1.46-4.12-3.11-5.81-5.11c-4.43-5.26-4.57-11.05-0.33-16.49c3.2-4.1,7.43-6.89,11.98-9.24c8.12-4.2,16.82-6.65,25.73-8.43
				c1.46-0.29,2.96-0.45,4.4-0.82c2.78-0.71,5.38,0.32,8.05,0.68C273.26,385.2,274.31,385.48,275.37,385.7z"/>
			<path class="st9" d="M300.68,291.97c-1.48,1.18-3.1,2.16-4.53,3.44c-2.52,2.26-4.4,4.92-4.66,8.3c-0.22,2.9,1.11,5.45,3.06,7.6
				c3.55,3.92,8.1,6.36,12.88,8.37c7.36,3.1,15.04,5.11,22.91,6.39c0.12,0.02,0.22,0.15,0.33,0.22c-10.18,1.58-20.4,1.79-30.67,1.19
				c-8.76-0.51-17.38-1.75-25.8-4.24c-4.8-1.42-9.44-3.2-13.52-6.21c-1.36-1-2.58-2.15-3.52-3.57c-1.85-2.81-1.77-5.52,0.28-8.18
				c2.11-2.74,5.01-4.44,8.05-5.89c6.23-2.98,12.86-4.63,19.63-5.79C290.28,292.73,295.45,292.06,300.68,291.97z"/>
			<path class="st3" d="M314.59,488.82c-2.27,0.39-4.55,0.38-6.82,0C310.05,488.82,312.32,488.82,314.59,488.82z"/>
		</g>
		<g>
			<path class="st10" d="M229.25,602.57c3.94,0.4,6.24,2.71,7.44,5.95c2.73,7.4,2.15,14.51-2.77,20.9
				c-2.73,3.55-6.56,5.27-11.02,5.32c-6.74,0.08-13.48,0-20.23,0.04c-1.07,0.01-1.44-0.2-1.44-1.38c0.04-19.59,0.04-39.17,0-58.76
				c0-1.19,0.29-1.56,1.51-1.53c6.73,0.21,13.48-0.31,20.21,0.31c7.79,0.72,13.18,6.66,13.27,14.46c0.04,3.54-0.57,6.9-2.24,10.04
				C232.95,599.91,231.59,601.57,229.25,602.57z M215.4,616.31c0,2.14,0,4.28,0,6.42c0,2.1,0,2.1,2.13,2.1
				c3.67,0,5.14-1.23,5.91-4.86c0.48-2.29,0.39-4.56-0.04-6.84c-0.81-4.26-2.65-5.71-6.94-5.49c-0.85,0.04-1.09,0.32-1.07,1.14
				C215.43,611.28,215.4,613.79,215.4,616.31z M215.41,590.14c-0.01,0-0.01,0-0.02,0c0,1.97,0,3.95,0,5.92c0,0.56,0.03,0.99,0.8,1.1
				c4.05,0.62,6.2-0.82,7.07-4.83c1.28-5.83-1.43-9.51-6.77-9.24c-0.83,0.04-1.12,0.28-1.1,1.12
				C215.44,586.19,215.41,588.17,215.41,590.14z"/>
			<path class="st10" d="M279.84,634.76c-4.64,0-9.02-0.03-13.41,0.03c-0.96,0.01-1.01-0.52-1.08-1.17
				c-0.27-2.66-0.59-5.31-0.78-7.97c-0.1-1.34-0.49-1.95-2-1.85c-2.34,0.15-4.71,0.11-7.06,0.01c-1.04-0.04-1.4,0.34-1.54,1.29
				c-0.41,2.85-0.91,5.69-1.3,8.55c-0.12,0.87-0.45,1.13-1.32,1.12c-3.96-0.05-7.92-0.08-11.88,0.01c-1.32,0.03-1.22-0.85-1.06-1.47
				c2.32-9.26,3.72-18.71,5.59-28.06c2.05-10.24,3.91-20.53,5.85-30.79c0.16-0.83,0.37-1.36,1.49-1.35
				c5.46,0.08,10.91,0.05,16.37,0.01c0.91-0.01,1.28,0.21,1.44,1.17c1.52,8.78,3.11,17.54,4.66,26.31
				c1.57,8.87,3.13,17.74,4.69,26.6C278.95,629.67,279.38,632.14,279.84,634.76z M259.37,584.59c-0.54,0.15-0.52,0.61-0.57,1.03
				c-0.97,8.48-1.96,16.96-2.91,25.44c-0.22,1.92-0.17,1.92,1.83,1.92c1.12,0,2.25,0,3.37,0c2.12,0,2.1,0,1.83-2.09
				c-0.94-7.25-1.91-14.5-2.76-21.76C259.97,587.57,259.52,586.07,259.37,584.59z"/>
			<path class="st10" d="M311.16,622.06c0.04-1.13-0.65-1.43-3.01-1.42c-3.63,0.01-7.25,0.02-10.88,0.02
				c-0.01-15.39-0.03-30.78,0-46.17c0-0.67-0.13-1.01-0.47-1.17c-0.62-0.28-1.96-0.11-4.49-0.17c-0.73-0.02-1.49,0-2.28,0
				c-1.49-0.01-1.69-0.08-3.15-0.05c-0.61,0.01-2.4,0.04-2.76,0.06c-0.83,0.06-1.06,0.43-1.06,1.42l0,24.6l0.1,34.21
				c0.01,0.8,0.66,1.44,1.46,1.43c3-0.02,9.37-0.03,11.15,0c0.08,0,0.14,0,0.21-0.01c4.11,0,8.22,0.01,12.33,0.01
				c2.28,0,2.85-0.33,2.82-1.36C311.05,629.66,311.02,625.86,311.16,622.06z"/>
			<path class="st10" d="M373.34,620.64c-3.63,0.01-7.25,0.02-10.88,0.02c0-3.21,0-6.42,0-9.63c3.54,0,7.08,0,10.62,0.01
				c2.28,0,2.85-0.33,2.82-1.36c-0.11-3.8-0.14-7.6,0-11.4c0.04-1.13-0.65-1.43-3.01-1.42c-3.48,0.01-6.96,0.02-10.44,0.02
				c0-3.21,0-6.42,0-9.63c3.69,0,7.38,0,11.06,0.01c2.28,0,2.85-0.33,2.82-1.36c-0.11-3.8-0.14-7.6,0-11.4
				c0.04-1.13-0.65-1.43-3.01-1.42c-4.27,0.01-8.54,0.02-12.8,0.03l0,0.06c-0.74,0-1.72,0.03-3.03,0c-0.73-0.02-1.49,0-2.28,0
				c-1.49-0.01-1.69-0.08-3.15-0.05c-0.61,0.01-2.4,0.04-2.76,0.06c-0.83,0.06-1.06,0.43-1.06,1.42l0,24.6l0.1,34.21
				c0.01,0.8,0.66,1.44,1.46,1.43c3-0.02,9.37-0.03,11.15,0c0.08,0,0.14,0,0.21-0.01c4.11,0,8.22,0.01,12.33,0.01
				c2.28,0,2.85-0.33,2.82-1.36c-0.11-3.8-0.14-7.6,0-11.4C376.39,620.94,375.7,620.64,373.34,620.64z"/>
			<path class="st10" d="M343.52,622.06c0.04-1.13-0.65-1.43-3.01-1.42c-3.63,0.01-7.25,0.02-10.88,0.02
				c-0.01-15.39-0.03-30.78,0-46.17c0-0.67-0.13-1.01-0.47-1.17c-0.62-0.28-1.96-0.11-4.49-0.17c-0.73-0.02-1.49,0-2.28,0
				c-1.49-0.01-1.69-0.08-3.15-0.05c-0.61,0.01-2.4,0.04-2.76,0.06c-0.83,0.06-1.06,0.43-1.06,1.42l0,24.6l0.1,34.21
				c0.01,0.8,0.66,1.44,1.46,1.43c3-0.02,9.37-0.03,11.15,0c0.08,0,0.14,0,0.21-0.01c4.11,0,8.22,0.01,12.33,0.01
				c2.28,0,2.85-0.33,2.82-1.36C343.4,629.66,343.37,625.86,343.52,622.06z"/>
			<path class="st10" d="M382.21,634.55c-1.07,0.01-1.44-0.2-1.44-1.38c0.04-19.59,0.04-39.17,0-58.76c0-1.19,0.29-1.56,1.51-1.53
				c6.73,0.21,13.48-0.31,20.21,0.31c7.79,0.72,13.18,6.66,13.27,14.46c0.04,3.54-0.57,6.9-2.24,10.04c-1.05,1.98-1.3,2.5-3.65,4.39
				c3.59,9.77,0,0,11.25,32.46 M406.46,634.55c-5.77-24.27-6.19-27.37-10.47-27.16c-0.85,0.04-1.09,0.32-1.07,1.14
				c0.04,2.51,0.02,5.03,0.02,7.54c0,2.14-0.01,16.34-0.01,18.48 M394.94,589.91c-0.01,0-0.01,0-0.02,0c0,1.97,0,3.95,0,5.92
				c0,0.56,0.03,0.99,0.8,1.1c4.05,0.62,6.2-0.82,7.07-4.83c1.28-5.83-1.43-9.51-6.77-9.24c-0.83,0.04-1.12,0.28-1.1,1.12
				C394.97,585.96,394.94,587.94,394.94,589.91z"/>
		</g>
	</g>
</g>
</svg>
